HIERARCHY
ROOT Hips
{
  OFFSET 0 0.240689 0
  CHANNELS 6 Xposition Yposition Zposition Zrotation Xrotation Yrotation
  JOINT Bip01_Spine0
  {
    OFFSET 0 -24.7459 49.7988
    CHANNELS 6 Xposition Yposition Zposition Zrotation Xrotation Yrotation
    JOINT Bip01_Pelvis
    {
      OFFSET 0 0 0
      CHANNELS 6 Xposition Yposition Zposition Zrotation Xrotation Yrotation
      JOINT Bip01_Spine0_Tail
      {
        OFFSET -6.47486 -3.86022 0
        CHANNELS 6 Xposition Yposition Zposition Zrotation Xrotation Yrotation
        JOINT Bip01_Spine0_Tail1
        {
          OFFSET 10.3837 -0.00825882 0
          CHANNELS 6 Xposition Yposition Zposition Zrotation Xrotation Yrotation
          JOINT Bip01_Spine0_Tail2
          {
            OFFSET 10.3837 -0.00826263 0
            CHANNELS 6 Xposition Yposition Zposition Zrotation Xrotation Yrotation
            JOINT Bip01_Spine0_Tail3
            {
              OFFSET 10.3837 -0.00825882 0
              CHANNELS 6 Xposition Yposition Zposition Zrotation Xrotation Yrotation
              JOINT Bip01_Spine0_Tail4
              {
                OFFSET 10.3837 -0.00826263 0
                CHANNELS 6 Xposition Yposition Zposition Zrotation Xrotation Yrotation
                End Site
                {
                  OFFSET 0 0 0
                }
              }
            }
          }
        }
      }
      JOINT Bip01_R_Thigh
      {
        OFFSET 0 -1.52588e-005 -8.75617
        CHANNELS 6 Xposition Yposition Zposition Zrotation Xrotation Yrotation
        JOINT Bip01_R_Calf
        {
          OFFSET 19.7638 0 0
          CHANNELS 6 Xposition Yposition Zposition Zrotation Xrotation Yrotation
          JOINT Bip01_R_Foot
          {
            OFFSET 18.6534 0 0
            CHANNELS 6 Xposition Yposition Zposition Zrotation Xrotation Yrotation
            JOINT Bip01_R_Toe0
            {
              OFFSET 5.09145 13.9567 0
              CHANNELS 6 Xposition Yposition Zposition Zrotation Xrotation Yrotation
              JOINT Bip01_R_Toe01
              {
                OFFSET 4.28803 0 0
                CHANNELS 6 Xposition Yposition Zposition Zrotation Xrotation Yrotation
                JOINT Bip01_R_Toe02
                {
                  OFFSET 3.85801 0 0
                  CHANNELS 6 Xposition Yposition Zposition Zrotation Xrotation Yrotation
                  End Site
                  {
                    OFFSET 0 0 0
                  }
                }
              }
            }
          }
        }
      }
      JOINT Bip01_L_Thigh
      {
        OFFSET 0 1.52588e-005 8.75617
        CHANNELS 6 Xposition Yposition Zposition Zrotation Xrotation Yrotation
        JOINT Bip01_L_Calf
        {
          OFFSET 19.7638 0 0
          CHANNELS 6 Xposition Yposition Zposition Zrotation Xrotation Yrotation
          JOINT Bip01_L_Foot
          {
            OFFSET 18.6534 0 0
            CHANNELS 6 Xposition Yposition Zposition Zrotation Xrotation Yrotation
            JOINT Bip01_L_Toe0
            {
              OFFSET 5.09144 13.9567 0
              CHANNELS 6 Xposition Yposition Zposition Zrotation Xrotation Yrotation
              JOINT Bip01_L_Toe01
              {
                OFFSET 4.28802 0 0
                CHANNELS 6 Xposition Yposition Zposition Zrotation Xrotation Yrotation
                JOINT Bip01_L_Toe02
                {
                  OFFSET 3.85801 0 0
                  CHANNELS 6 Xposition Yposition Zposition Zrotation Xrotation Yrotation
                  End Site
                  {
                    OFFSET 0 0 0
                  }
                }
              }
            }
          }
        }
      }
      JOINT Bip01_Spine
      {
        OFFSET 9.14835 -0.00640869 -1.1e-005
        CHANNELS 6 Xposition Yposition Zposition Zrotation Xrotation Yrotation
        JOINT Bip01_Spine1
        {
          OFFSET 8.04366 -0.00638199 0
          CHANNELS 6 Xposition Yposition Zposition Zrotation Xrotation Yrotation
          JOINT Bip01_Spine2
          {
            OFFSET 8.04367 -0.00639343 0
            CHANNELS 6 Xposition Yposition Zposition Zrotation Xrotation Yrotation
            JOINT Bip01_Spine3
            {
              OFFSET 8.04304 -0.00831222 0
              CHANNELS 6 Xposition Yposition Zposition Zrotation Xrotation Yrotation
              JOINT Bip01_Neck
              {
                OFFSET 10.6685 1.06813 0
                CHANNELS 6 Xposition Yposition Zposition Zrotation Xrotation Yrotation
                JOINT Bip01_R_Clavicle
                {
                  OFFSET -3.21661 -4.89635 -9.04802
                  CHANNELS 6 Xposition Yposition Zposition Zrotation Xrotation Yrotation
                  JOINT Bip01_R_UpperArm
                  {
                    OFFSET 19.0492 0 0
                    CHANNELS 6 Xposition Yposition Zposition Zrotation Xrotation Yrotation
                    JOINT Bip01_R_Forearm
                    {
                      OFFSET 10.3706 0 0
                      CHANNELS 6 Xposition Yposition Zposition Zrotation Xrotation Yrotation
                      JOINT Bip01_R_Hand
                      {
                        OFFSET 22.8632 0 0
                        CHANNELS 6 Xposition Yposition Zposition Zrotation Xrotation Yrotation
                        JOINT Bip01_R_Finger0
                        {
                          OFFSET 6.48259 0.103651 0.504496
                          CHANNELS 6 Xposition Yposition Zposition Zrotation Xrotation Yrotation
                          JOINT Bip01_R_Finger01
                          {
                            OFFSET 3.66847 0 0
                            CHANNELS 6 Xposition Yposition Zposition Zrotation Xrotation Yrotation
                            End Site
                            {
                              OFFSET 0 0 0
                            }
                          }
                        }
                      }
                    }
                  }
                }
                JOINT Bip01_L_Clavicle
                {
                  OFFSET -3.21661 -4.89641 9.04797
                  CHANNELS 6 Xposition Yposition Zposition Zrotation Xrotation Yrotation
                  JOINT Bip01_L_UpperArm
                  {
                    OFFSET 19.0492 0 0
                    CHANNELS 6 Xposition Yposition Zposition Zrotation Xrotation Yrotation
                    JOINT Bip01_L_Forearm
                    {
                      OFFSET 10.3706 0 0
                      CHANNELS 6 Xposition Yposition Zposition Zrotation Xrotation Yrotation
                      JOINT Bip01_L_Hand
                      {
                        OFFSET 22.8631 0 0
                        CHANNELS 6 Xposition Yposition Zposition Zrotation Xrotation Yrotation
                        JOINT Bip01_L_Finger0
                        {
                          OFFSET 6.48257 0.103655 -0.504492
                          CHANNELS 6 Xposition Yposition Zposition Zrotation Xrotation Yrotation
                          JOINT Bip01_L_Finger01
                          {
                            OFFSET 3.66844 0 0
                            CHANNELS 6 Xposition Yposition Zposition Zrotation Xrotation Yrotation
                            End Site
                            {
                              OFFSET 0 0 0
                            }
                          }
                        }
                      }
                    }
                  }
                }
                JOINT Bip01_Neck1
                {
                  OFFSET 7.52459 -0.00656509 0
                  CHANNELS 6 Xposition Yposition Zposition Zrotation Xrotation Yrotation
                  JOINT Bip01_Neck2
                  {
                    OFFSET 8.4783 -0.00588226 0
                    CHANNELS 6 Xposition Yposition Zposition Zrotation Xrotation Yrotation
                    JOINT Bip01_Head
                    {
                      OFFSET 8.41606 0 0
                      CHANNELS 6 Xposition Yposition Zposition Zrotation Xrotation Yrotation
                      JOINT EyesBlue
                      {
                        OFFSET 0 0 0
                        CHANNELS 6 Xposition Yposition Zposition Zrotation Xrotation Yrotation
                        JOINT EyesBlue_2
                        {
                          OFFSET 0 -0.500007 0
                          CHANNELS 6 Xposition Yposition Zposition Zrotation Xrotation Yrotation
                          End Site
                          {
                            OFFSET 0 0 0
                          }
                        }
                      }
                      JOINT Bip01_Head2_Eyeleds
                      {
                        OFFSET 6.52751 7.61746 2.2e-005
                        CHANNELS 6 Xposition Yposition Zposition Zrotation Xrotation Yrotation
                        End Site
                        {
                          OFFSET 0 0 0
                        }
                      }
                      JOINT Bip01_Head_Muzzle
                      {
                        OFFSET 2.88628 13.9448 3.88994
                        CHANNELS 6 Xposition Yposition Zposition Zrotation Xrotation Yrotation
                        End Site
                        {
                          OFFSET 0 0 0
                        }
                      }
                      JOINT Bip01_Head1_Jaw
                      {
                        OFFSET 0.271065 1.32405 0
                        CHANNELS 6 Xposition Yposition Zposition Zrotation Xrotation Yrotation
                        JOINT _Bip01_Head11_TungeControler
                        {
                          OFFSET 4.61616 5.82872 0
                          CHANNELS 6 Xposition Yposition Zposition Zrotation Xrotation Yrotation
                          JOINT _Bip01_Ponytail3_tunge
                          {
                            OFFSET 5.17785 2.98805 0
                            CHANNELS 6 Xposition Yposition Zposition Zrotation Xrotation Yrotation
                            JOINT Bip01_Ponytail31
                            {
                              OFFSET 5.57569 0 0
                              CHANNELS 6 Xposition Yposition Zposition Zrotation Xrotation Yrotation
                              JOINT Bip01_Ponytail32
                              {
                                OFFSET 2.93165 0 0
                                CHANNELS 6 Xposition Yposition Zposition Zrotation Xrotation Yrotation
                                JOINT Bip01_Ponytail3Nub
                                {
                                  OFFSET 3.30155 0 0
                                  CHANNELS 6 Xposition Yposition Zposition Zrotation Xrotation Yrotation
                                  End Site
                                  {
                                    OFFSET 0 0 0
                                  }
                                }
                              }
                            }
                          }
                        }
                        JOINT Bip01_Head_JawNub
                        {
                          OFFSET 15.5776 -0.000389099 0
                          CHANNELS 6 Xposition Yposition Zposition Zrotation Xrotation Yrotation
                          End Site
                          {
                            OFFSET 0 0 0
                          }
                        }
                      }
                      JOINT Bip01_Ponytail2
                      {
                        OFFSET 9.40334 1.03973 -6.51764
                        CHANNELS 6 Xposition Yposition Zposition Zrotation Xrotation Yrotation
                        JOINT Bip01_Ponytail21
                        {
                          OFFSET 2.77018 -0.00640106 1.33514e-005
                          CHANNELS 6 Xposition Yposition Zposition Zrotation Xrotation Yrotation
                          End Site
                          {
                            OFFSET 0 0 0
                          }
                        }
                      }
                      JOINT Bip01_Ponytail1
                      {
                        OFFSET 9.40368 1.03969 6.51768
                        CHANNELS 6 Xposition Yposition Zposition Zrotation Xrotation Yrotation
                        JOINT Bip01_Ponytail11
                        {
                          OFFSET 2.77018 -0.00640487 0
                          CHANNELS 6 Xposition Yposition Zposition Zrotation Xrotation Yrotation
                          End Site
                          {
                            OFFSET 0 0 0
                          }
                        }
                      }
                    }
                  }
                }
              }
            }
          }
        }
      }
    }
  }
}
MOTION
Frames:	4
Frame Time:	0.0333333
0 0.240704 0.109628 -0 -90 -0 -0.262118 -24.7487 50.4629 90 -3.50835e-015 90 0 0 0 -89.9996 -0.000482803 -93.9528 -6.45919 -3.86075 0.446284 133.308 2.87997 -2.7109 10.3821 -0.008037 5e-005 -7.66987 0.00467493 6.49169 10.3832 -0.008125 0.000123 -1.10323 0.00896845 5.99302 10.3867 -0.007347 0.000106 25.2155 0.0355004 9.15583 10.3846 -0.008102 0.000141999 9.42604 0.007483 0.195411 9e-006 -1.5e-005 -8.75617 -97.4621 -12.0292 173.96 19.7638 7.10543e-015 -1e-006 -60.8724 0.000613659 0.00235084 18.6534 3e-006 -1.56319e-013 -27.4918 1.40146 7.55244 5.09143 13.9567 -6.5182e-007 111.549 1.08195 -4.88322 4.288 1.06581e-014 0 68.7843 0.00135235 0.000256591 3.858 2.66454e-015 -3.55271e-015 -40.7888 0.00106885 0.0023078 -1.5e-005 1.1e-005 8.75617 -110.951 -4.48357 -179.228 19.7638 -2e-006 -1e-006 -79.1053 9.57271e-006 0.000102772 18.6534 7e-006 1.77636e-015 -25.5003 1.14636 -5.71994 5.09143 13.9567 4.17022e-007 100.029 -0.910762 4.91628 4.288 2.13163e-014 -1e-006 51.4844 0.00222442 0.000742523 3.858 7.10543e-015 0 -4.74587 -6.26676 -1.63313 9.12652 -0.00637 -0.630608 -0.000587304 0.00141997 3.9528 8.04366 0.00105011 -0.00782145 0.0599418 0.00110536 0.110959 8.04367 -0.006404 3.89609e-010 0.00684648 0.00104343 0.0552459 8.04304 -0.008319 4.81614e-010 -4.29765 0.000479631 0.0551968 10.67 1.06796 1.01999e-006 0.69085 9.92619e-006 9.88346e-006 -4.30419 -3.97569 -9.04793 179.27 -85.4168 114.994 19.0492 0 -3e-006 89.7434 8.42753 -103.467 10.3706 7.10543e-015 -5.77316e-015 -58.5551 0.000877029 0.00311618 22.8631 3e-006 -1.38556e-013 -16.606 -0.171598 2.44972 6.48256 0.103653 0.504495 -87.0093 2.10526 -15.3589 3.66844 2e-006 -1.24345e-014 40.106 0.00127066 0.000623147 -4.30414 -3.97564 9.04778 179.277 85.4166 -115 19.0492 -1.06581e-014 3e-006 88.6311 -8.32552 99.4945 10.3706 1e-006 1.3145e-013 -58.5552 0.000883396 0.00314675 22.8631 -1.06581e-014 2.66453e-015 -16.4443 -8.55638 -2.45487 6.48256 0.103651 -0.504497 -68.5605 2.82303 16.4164 3.66844 -2.00002e-006 1.99998e-006 25.6111 0.000542582 -0.000256769 7.52562 -0.006729 -1.5082e-010 -4.48654 9.92625e-006 1.08713e-005 8.47686 -0.006458 -6.28524e-011 15.6197 2.50667e-005 -5.31793e-005 8.41605 3e-006 -2.76446e-014 -74.0074 0.196382 -0.0891287 -3.83693e-013 3e-006 -3e-006 -23.1098 1.37701e-015 90 -1.44185e-008 -0.499993 -1.26895e-005 -56.5015 90 146.501 0 0 0 -113.586 1.52588e-005 -179.994 2.88731 13.9445 3.88994 -22.989 1.37021e-015 90 0 0 0 -85.3358 -7.01671e-015 -180 0 0 0 -120.289 -7.57639e-008 -1.99018e-005 0 0 0 133.74 -1.96719e-005 4.66842e-006 0 0 0 -0.168468 1.95408e-009 5.59574e-010 0 0 0 -22.6319 9.04546e-008 7.24868e-008 0 0 0 -26.1943 1.73277e-008 3.68189e-008 15.5776 -0.000396 -7e-006 0 1.16475e-018 -0 9.40334 1.03981 -6.51764 -19.0889 17.1073 20.3077 2.76859 -0.006114 -0.001363 -12.2016 12.3265 -1.9868 9.40369 1.03972 6.51759 -19.0892 -17.1063 -20.3049 2.76858 -0.006114 0.001365 -12.2016 -12.3265 1.98687 
0 0.240704 0.109628 -0 -90 -0 -0.262118 -24.7627 50.4629 90.0018 -3.50835e-015 90 0 0 0 -89.9993 -0.000615546 -94.0655 -6.45919 -3.86075 0.459005 133.421 2.95646 -2.79373 10.3821 -0.008037 5e-005 -7.66987 0.00467493 6.49169 10.3832 -0.008125 0.000123 -1.10323 0.00896845 5.99302 10.3867 -0.007347 0.000106 25.2155 0.0355004 9.15583 10.3846 -0.008102 0.000141999 8.94862 0.0115946 0.387194 9e-006 -1.5e-005 -8.75617 -97.39 -12.1443 173.961 19.7638 -1.06581e-014 -1e-006 -60.8678 0.000613845 0.00235079 18.6534 3e-006 -1.61648e-013 -27.4918 1.40146 7.55244 5.09143 13.9567 -6.47652e-007 111.549 1.08195 -4.88322 4.288 -1.06581e-014 3.55271e-015 68.7843 0.00135236 0.000256592 3.858 6.21725e-015 3.55271e-015 -40.7888 0.00106885 0.00230779 -1.5e-005 1.1e-005 8.75617 -110.929 -4.58939 -179.264 19.7638 -2e-006 -1e-006 -79.1053 9.57135e-006 0.000102773 18.6534 7e-006 1.77636e-015 -25.5003 1.14617 -5.71954 5.09143 13.9567 4.04054e-007 100.029 -0.910762 4.91628 4.288 1.42109e-014 -1e-006 51.4844 0.00222437 0.00074252 3.858 0 -1.77636e-015 -4.74587 -6.26676 -1.63313 9.12523 -0.00637 -0.648584 0.0752431 0.00688206 4.06735 8.04366 -0.00513986 -0.00748094 0.0479518 0.00127402 0.108531 8.04367 -0.006404 1.18514e-009 0.0389483 0.00107431 0.0552453 8.04304 -0.008319 1.50403e-009 -4.29765 0.00047263 0.0551962 10.67 1.06796 1.01961e-006 0.661152 9.93754e-006 9.88951e-006 -4.29981 -3.98044 -9.04793 179.338 -85.4174 114.999 19.0492 -7.10543e-015 -3e-006 89.7318 8.4842 -103.472 10.3706 3.55272e-015 3.55271e-015 -58.635 0.000872688 0.00311741 22.8631 3e-006 -1.43885e-013 -16.5328 -0.168465 2.44994 6.48256 0.103653 0.504495 -87.0093 2.10526 -15.3589 3.66844 2e-006 -1.95399e-014 40.106 0.00127065 0.000623145 -4.29971 -3.98037 9.04778 179.356 85.4168 -115.015 19.0492 -1.77636e-014 3e-006 88.624 -8.37881 99.4992 10.3706 1e-006 1.34115e-013 -58.6378 0.000878855 0.00314802 22.8631 7.10543e-015 5.32907e-015 -16.3715 -8.55407 -2.46259 6.48256 0.103651 -0.504497 -68.5605 2.82304 16.4164 3.66844 -2.00002e-006 1.99998e-006 25.6111 0.000536542 -0.000253872 7.52562 -0.006729 -1.46509e-010 -4.51626 9.89653e-006 1.08739e-005 8.47686 -0.006458 -6.14367e-011 15.59 2.50854e-005 -5.31632e-005 8.41605 3e-006 -3.25295e-014 -73.9455 0.196443 -0.0893863 -3.97904e-013 3e-006 -3e-006 -23.1098 1.37701e-015 90 -1.44188e-008 -0.499993 -1.26893e-005 3.96746e-008 90 90 0 0 0 -113.579 1.52588e-005 -179.997 2.88731 13.9445 3.88994 -22.989 1.37021e-015 90 0 0 0 -84.6702 7.01671e-015 -180 0 0 0 -117.999 -8.66334e-007 -1.98876e-005 0 0 0 131.116 0.187474 -0.504834 0 0 0 0.0294691 7.58884e-009 1.55266e-009 0 0 0 -22.846 -1.81269e-006 -1.17502e-006 0 0 0 -26.1943 -2.77173e-007 -4.30956e-007 15.5776 -0.000396 -7e-006 3.18055e-015 -3.88251e-019 7.76503e-019 9.40334 1.03981 -6.51764 -19.1039 16.452 20.3339 2.76859 -0.006114 -0.001363 -12.2016 12.3265 -1.9868 9.40369 1.03972 6.51759 -19.1043 -16.451 -20.3308 2.76858 -0.006114 0.001365 -12.2016 -12.3265 1.98687 
0 0.240704 0.109628 -0 -90 -0 -0.262118 -24.787 50.4629 90.0021 -0.000540592 89.8094 0 0 0 -89.9994 -0.000655064 -94.1869 -6.45919 -3.86075 0.472656 133.544 3.03863 -2.88349 10.3821 -0.008037 5e-005 -7.66987 0.00467493 6.49169 10.3832 -0.008125 0.000123 -1.10323 0.00896845 5.99302 10.3867 -0.007347 0.000106 25.2155 0.0355004 9.15583 10.3846 -0.008102 0.000141999 8.2862 0.00926666 0.386299 9e-006 -1.5e-005 -8.75617 -97.2948 -12.2673 173.967 19.7638 3.55271e-015 -1e-006 -60.8732 0.000613624 0.00235085 18.6534 3e-006 -1.66978e-013 -27.4918 1.40146 7.55244 5.09143 13.9567 -6.395e-007 111.549 1.08195 -4.88322 4.288 -1.42109e-014 1.06581e-014 68.7843 0.00135238 0.000256594 3.858 6.21725e-015 -7.10543e-015 -40.7888 0.00106885 0.00230778 -1.5e-005 1.1e-005 8.75617 -110.875 -4.70326 -179.301 19.7638 -2e-006 -1e-006 -79.1053 9.56972e-006 0.000102773 18.6534 7e-006 0 -25.5003 1.1452 -5.71752 5.09143 13.9567 3.86097e-007 100.029 -0.910762 4.91628 4.288 7.10543e-015 -1e-006 51.4844 0.0022243 0.000742518 3.858 8.88179e-015 7.10543e-015 -4.74587 -6.26676 -1.63313 9.12382 -0.00637 -0.667874 0.189353 0.0155065 4.18902 8.04365 -0.013734 -0.00744183 0.0406114 0.00118709 0.108253 8.04367 -0.006404 2.57337e-009 0.0928248 0.0011209 0.0552443 8.04304 -0.008319 2.52932e-009 -4.29765 0.000465596 0.0551957 10.67 1.06796 1.01943e-006 0.579327 9.95465e-006 9.90557e-006 -4.29241 -3.98841 -9.04793 179.444 -85.4175 114.997 19.0492 -3.55272e-015 -3e-006 89.7134 8.57971 -103.482 10.3706 -7.10543e-015 -3.55271e-015 -58.7677 0.000865471 0.00311943 22.8631 3e-006 -1.37668e-013 -16.4109 -0.163248 2.45029 6.48256 0.103653 0.504495 -87.0093 2.10526 -15.3589 3.66844 2e-006 -1.77636e-014 40.106 0.00127064 0.000623137 -4.29228 -3.98834 9.04778 179.486 85.4169 -115.039 19.0492 -8.88179e-015 3e-006 88.6127 -8.46999 99.5066 10.3706 1e-006 1.33227e-013 -58.7749 0.000871306 0.00315012 22.8631 -7.10543e-015 -8.88178e-015 -16.2496 -8.55025 -2.47561 6.48256 0.103651 -0.504497 -68.5605 2.82306 16.4164 3.66844 -2.00002e-006 1.99998e-006 25.6111 0.000513747 -0.000242942 7.52562 -0.006729 -1.41696e-010 -4.59806 9.85392e-006 1.08855e-005 8.47686 -0.006458 -5.98834e-011 15.5081 2.51701e-005 -5.31245e-005 8.41605 3e-006 -2.78111e-014 -73.8406 0.196831 -0.0899052 -3.97904e-013 3e-006 -3e-006 -23.1098 1.37701e-015 90 -1.442e-008 -0.499993 -1.26894e-005 3.97158e-008 90 90 0 0 0 -113.484 1.52588e-005 -179.998 2.88731 13.9445 3.88994 -22.989 1.37021e-015 90 0 0 0 -83.9978 -7.01671e-015 -180 0 0 0 -115.685 -1.66408e-006 -1.98413e-005 0 0 0 128.47 0.376827 -1.0148 0 0 0 0.229402 1.06614e-007 2.32164e-008 0 0 0 -23.0622 -3.43773e-006 -2.31323e-006 0 0 0 -26.1943 -5.36391e-007 -8.80836e-007 15.5776 -0.000396 -7e-006 3.94634e-039 5.82377e-019 -3.88251e-019 9.40334 1.03981 -6.51764 -19.1282 15.348 20.3767 2.76859 -0.006114 -0.001363 -12.2016 12.3265 -1.9868 9.40369 1.03972 6.51759 -19.1285 -15.3474 -20.3738 2.76858 -0.006114 0.001365 -12.2016 -12.3265 1.98687 
0 0.240704 0.109628 -0 -90 -0 -0.262118 -24.8186 50.4629 90.0006 -0.000183791 89.6652 0 0 0 -89.9994 -0.000627299 -94.3102 -6.45919 -3.86075 0.486592 133.669 3.12208 -2.97545 10.3821 -0.008037 5e-005 -7.66987 0.00467493 6.49169 10.3832 -0.008125 0.000123 -1.10323 0.00896845 5.99302 10.3867 -0.007347 0.000106 25.2155 0.0355004 9.15583 10.3846 -0.008102 0.000141999 7.48633 0.00416297 0.237527 9e-006 -1.5e-005 -8.75617 -97.1846 -12.3926 173.977 19.7638 -1.06581e-014 -1e-006 -60.8906 0.000612907 0.00235103 18.6534 3e-006 -1.68754e-013 -27.4918 1.40146 7.55244 5.09143 13.9567 -6.27323e-007 111.549 1.08195 -4.88322 4.288 -7.10543e-015 -7.10543e-015 68.7843 0.00135241 0.000256597 3.858 -6.21725e-015 0 -40.7888 0.00106885 0.00230775 -1.5e-005 1.1e-005 8.75617 -110.799 -4.81926 -179.337 19.7638 -2e-006 -1e-006 -79.1053 9.56803e-006 0.000102774 18.6534 7e-006 0 -25.5004 1.1437 -5.71436 5.09143 13.9567 3.64555e-007 100.029 -0.910762 4.91628 4.288 2.84217e-014 -1e-006 51.4844 0.00222423 0.000742515 3.858 7.10543e-015 0 -4.74587 -6.26676 -1.63313 9.12237 -0.00637 -0.687565 0.205797 0.0171767 4.36557 8.04366 -0.006404 4.47086e-010 0.161455 0.00122789 0.0552429 8.04367 -0.006404 4.38358e-009 0.161455 0.00117374 0.055243 8.04304 -0.008319 2.94443e-009 -4.29765 0.000462748 0.0551955 10.67 1.06796 1.01939e-006 0.461656 9.97371e-006 9.92849e-006 -4.28288 -3.99865 -9.04793 179.58 -85.417 114.997 19.0492 -1.77636e-015 -3e-006 89.6902 8.70403 -103.495 10.3706 -1.24345e-014 -5.32907e-015 -58.9377 0.000856227 0.003122 22.8631 3e-006 -1.33671e-013 -16.2542 -0.156546 2.45073 6.48256 0.103653 0.504495 -87.0093 2.10526 -15.3589 3.66844 2e-006 -1.24345e-014 40.106 0.00127062 0.000623126 -4.28275 -3.99858 9.04778 179.653 85.4169 -115.07 19.0492 -3.55272e-015 3e-006 88.5982 -8.58816 99.5157 10.3706 1e-006 1.32339e-013 -58.9503 0.000861649 0.00315276 22.8631 3.55272e-015 8.88178e-016 -16.0924 -8.5454 -2.49271 6.48256 0.103651 -0.504497 -68.5605 2.8231 16.4164 3.66844 -2.00002e-006 1.99998e-006 25.6111 0.00048088 -0.000227182 7.52562 -0.006729 -1.36777e-010 -4.71575 9.80307e-006 1.09033e-005 8.47686 -0.006458 -5.8385e-011 15.3905 2.53062e-005 -5.30704e-005 8.41605 3e-006 -3.62488e-014 -73.7057 0.196408 -0.0903074 -3.83693e-013 3e-006 -3e-006 -23.1098 1.37701e-015 90 -1.44195e-008 -0.499993 -1.26895e-005 -77.5796 90 167.58 0 0 0 -113.549 -3.05176e-005 -180 2.88731 13.9445 3.88994 -22.989 1.37021e-015 90 0 0 0 -83.3254 -3.24611e-014 -180 0 0 0 -113.372 -2.45872e-006 -1.97639e-005 0 0 0 125.826 0.566086 -1.5248 0 0 0 0.429308 2.68559e-007 6.16255e-008 0 0 0 -23.2785 -4.83076e-006 -3.35643e-006 0 0 0 -26.1943 -7.62741e-007 -1.31138e-006 15.5776 -0.000396 -7e-006 -3.18055e-015 -1.55301e-018 -0 9.40334 1.03981 -6.51764 -19.1579 13.9253 20.4309 2.76859 -0.006114 -0.001363 -12.2016 12.3265 -1.9868 9.40369 1.03972 6.51759 -19.1579 -13.9247 -20.4286 2.76858 -0.006114 0.001365 -12.2016 -12.3265 1.98687 
